<svg xmlns="http://www.w3.org/2000/svg" viewBox="0 0 512 512"><title>Shirt</title><g id="Shirt"><path d="M443.9011,205.4534a11.4916,11.4916,0,0,1-1.7619-1.6912l-88.5809-88.1973a9.39,9.39,0,0,0-6.64-2.75H324.2856L304.71,94.626a5.4982,5.4982,0,0,0-7.4815.0244l-42.5146,39.7021L212.1992,94.65a5.5,5.5,0,0,0-7.4814-.0244l-19.5757,18.1885H164.5283a9.3907,9.3907,0,0,0-6.6406,2.7509L67.7963,205.6705a5.4845,5.4845,0,0,0-2.182,4.3891v.0721l.15,84.007a5.5,5.5,0,0,0,3.9034,5.2534l87.7627,26.6313V413.33a5.5,5.5,0,0,0,5.5,5.5h41.247A56.8942,56.8942,0,0,0,256.02,385.2334,56.8943,56.8943,0,0,0,307.8613,418.83h41.2461a5.5,5.5,0,0,0,5.5-5.5V326.012l87.7246-26.62a5.5,5.5,0,0,0,3.9034-5.2534l.15-84.0791A5.4875,5.4875,0,0,0,443.9011,205.4534Zm-142.8943-99.28,11.4327,10.54-34.0616,44.7109-16.09-19.0932Zm-92.5859,0L247.14,142.3306l-16.09,19.0932-34.0625-44.71Zm226.8213,183.875L310.7578,327.8228l.07-41.8155,97.5313-52.2812a5.5,5.5,0,1,0-5.1973-9.6953l-48.5547,26.0278V219.8013a5.5,5.5,0,1,0-11,0v36.1539l-40.872,21.91a5.5022,5.5022,0,0,0-2.9014,4.8384l-.0889,52.5308a5.5,5.5,0,0,0,7.0967,5.2724L343.6074,329.35v78.48H307.8613c-25.27,0-46.9277-20.6457-46.9277-45.9147l.0713-191.7a5.5,5.5,0,0,0-11,0V362.0029A45.8789,45.8789,0,0,1,204.1777,407.83h-35.747V329.3615l36.7275,11.1448a5.5,5.5,0,0,0,7.0967-5.2724l-.0889-52.5308a5.5022,5.5022,0,0,0-2.9014-4.8384l-40.8339-21.8891V219.8013a5.5,5.5,0,1,0-11,0v30.2778l-48.5928-26.0483a5.5,5.5,0,0,0-5.1973,9.6953l97.5313,52.2812.07,41.8155L76.7578,290.0479l-.1394-77.6438,88.59-88.59h23.36l37.8892,49.7343a5.5,5.5,0,0,0,8.5811.2115l19.6748-23.3472L274.3887,173.76a5.5016,5.5016,0,0,0,4.206,1.9555c.0449,0,.09,0,.1358-.0014a5.502,5.502,0,0,0,4.2392-2.1656l37.8894-49.7343h25.3914l89.13,89.13Z" fill="white"/></g></svg>